<svg width="100%" height="50%" viewBox="0 0 123 123" version="1.1" xmlns="http://www.w3.org/2000/svg" xmlns:xlink="http://www.w3.org/1999/xlink" xml:space="preserve" style="fill-rule:evenodd;clip-rule:evenodd;stroke-linejoin:round;stroke-miterlimit:2;">
    <g id="x-mark">
        <path d="M101.703,36.06c2.054,-2.054 2.054,-5.388 0,-7.442l-7.441,-7.441c-2.054,-2.054 -5.388,-2.054 -7.442,0l-65.643,65.643c-2.054,2.054 -2.054,5.388 0,7.442l7.441,7.441c2.054,2.054 5.388,2.054 7.442,0l65.643,-65.643Z" style="fill:#02001e;" />
        <path d="M86.82,101.703c2.054,2.054 5.388,2.054 7.442,0l7.441,-7.441c2.054,-2.054 2.054,-5.388 0,-7.442l-65.643,-65.643c-2.054,-2.054 -5.388,-2.054 -7.442,0l-7.441,7.441c-2.054,2.054 -2.054,5.388 0,7.442l65.643,65.643Z" style="fill:#02001e;" />
    </g>
</svg>