<svg width="100%" height="100%" viewBox="0 0 800 447" preserveAspectRatio="xMidYMax slice" version="1.1" xmlns="http://www.w3.org/2000/svg" xmlns:xlink="http://www.w3.org/1999/xlink" xml:space="preserve" xmlns:serif="http://www.serif.com/" style="fill-rule:evenodd;clip-rule:evenodd;stroke-linejoin:round;stroke-miterlimit:2;"><rect id="Artboard1" x="0" y="0" width="800" height="446.374" style="fill:none;"/><clipPath id="_clip1"><rect x="0" y="0" width="800" height="446.374"/></clipPath><g clip-path="url(#_clip1)"><g id="Background"><path d="M800.828,448.051l0,-451.564l-803.856,0l0,451.564l803.856,0Z" style="fill:url(#_Linear2);"/><ellipse cx="720.558" cy="355.142" rx="647.316" ry="309.935" style="fill:url(#_Radial3);"/></g><g id="Stars" opacity="0.15"><circle cx="362.644" cy="4.733" r="1.461" style="fill:#eeefff;fill-opacity:0.69;"/><circle cx="334.392" cy="11.38" r="0.715" style="fill:#eeefff;fill-opacity:0.69;"/><circle cx="369.845" cy="6.949" r="0.715" style="fill:#fffeee;fill-opacity:0.69;"/><circle cx="49.291" cy="25.229" r="1.461" style="fill:#fee;fill-opacity:0.69;"/><circle cx="403.867" cy="17.97" r="1.461" style="fill:#fee;fill-opacity:0.69;"/><ellipse cx="125.013" cy="9.633" rx="0.737" ry="0.821" style="fill:#eeefff;fill-opacity:0.69;"/><circle cx="87.333" cy="15.439" r="1.088" style="fill:#fff8e8;fill-opacity:0.69;"/><path d="M709.089,15.919c-0.575,0.333 -1.312,0.135 -1.644,-0.44c-0.333,-0.576 -0.135,-1.313 0.44,-1.645c0.576,-0.332 1.313,-0.135 1.645,0.441c0.332,0.575 0.135,1.312 -0.441,1.644Z" style="fill:#eeefff;fill-opacity:0.69;"/><path d="M716.544,3.358c-0.342,0.197 -0.779,0.08 -0.977,-0.262c-0.197,-0.341 -0.08,-0.779 0.262,-0.977c0.342,-0.197 0.779,-0.08 0.977,0.262c0.197,0.342 0.08,0.78 -0.262,0.977Z" style="fill:#eeefff;fill-opacity:0.69;"/><path d="M701.851,87.271c-0.342,0.198 -0.78,0.081 -0.977,-0.261c-0.197,-0.342 -0.08,-0.78 0.262,-0.977c0.341,-0.197 0.779,-0.08 0.976,0.262c0.198,0.341 0.081,0.779 -0.261,0.976Z" style="fill:#fffeee;fill-opacity:0.69;"/><path d="M669.995,7.519c-0.342,0.197 -0.78,0.08 -0.977,-0.262c-0.198,-0.341 -0.08,-0.779 0.261,-0.976c0.342,-0.198 0.78,-0.081 0.977,0.261c0.198,0.342 0.08,0.78 -0.261,0.977Z" style="fill:#eeefff;fill-opacity:0.69;"/><path d="M465.032,24.138c-0.342,0.197 -0.779,0.08 -0.977,-0.262c-0.197,-0.342 -0.08,-0.78 0.262,-0.977c0.342,-0.197 0.779,-0.08 0.977,0.262c0.197,0.342 0.08,0.779 -0.262,0.977Z" style="fill:#eeefff;fill-opacity:0.69;"/><path d="M614.599,24.138c-0.341,0.197 -0.779,0.08 -0.977,-0.262c-0.197,-0.342 -0.08,-0.78 0.262,-0.977c0.342,-0.197 0.78,-0.08 0.977,0.262c0.197,0.342 0.08,0.779 -0.262,0.977Z" style="fill:#eeefff;fill-opacity:0.69;"/><path d="M691.664,7.383c-0.698,0.403 -1.592,0.163 -1.995,-0.535c-0.403,-0.698 -0.164,-1.592 0.534,-1.995c0.698,-0.403 1.592,-0.163 1.996,0.535c0.403,0.698 0.163,1.592 -0.535,1.995Z" style="fill:#fee;fill-opacity:0.69;"/><circle cx="198.7" cy="7.738" r="0.715" style="fill:#fffeee;fill-opacity:0.69;"/><circle cx="244.102" cy="79.308" r="0.496" style="fill:#eeefff;fill-opacity:0.69;"/><path d="M104.17,29.677c0.342,0.198 0.78,0.08 0.977,-0.262c0.198,-0.341 0.08,-0.779 -0.261,-0.976c-0.342,-0.198 -0.78,-0.08 -0.977,0.261c-0.198,0.342 -0.08,0.78 0.261,0.977Z" style="fill:#eeefff;fill-opacity:0.69;"/><circle cx="203.07" cy="73.278" r="0.715" style="fill:#fffeee;fill-opacity:0.69;"/><circle cx="193.264" cy="22.459" r="0.715" style="fill:#eeefff;fill-opacity:0.69;"/><circle cx="157.667" cy="14.848" r="0.496" style="fill:#eeefff;fill-opacity:0.69;"/><circle cx="261.444" cy="28.257" r="0.805" style="fill:#eeefff;fill-opacity:0.69;"/><circle cx="223.281" cy="52.803" r="1.088" style="fill:#fff8e8;fill-opacity:0.69;"/><path d="M583.698,25.392c-0.342,-0.197 -0.78,-0.08 -0.977,0.262c-0.197,0.342 -0.08,0.78 0.262,0.977c0.342,0.197 0.779,0.08 0.977,-0.262c0.197,-0.341 0.08,-0.779 -0.262,-0.977Z" style="fill:#eeefff;fill-opacity:0.69;"/><circle cx="330.57" cy="98.448" r="0.715" style="fill:#fffeee;fill-opacity:0.69;"/><circle cx="330.376" cy="79.267" r="0.715" style="fill:#eeefff;fill-opacity:0.69;"/><circle cx="365.972" cy="26.878" r="0.496" style="fill:#eeefff;fill-opacity:0.69;"/><circle cx="112.16" cy="59.167" r="0.44" style="fill:#eeefff;fill-opacity:0.69;"/><circle cx="800.966" cy="4.978" r="0.826" style="fill:#eeefff;fill-opacity:0.69;"/><circle cx="794.399" cy="127.828" r="0.715" style="fill:#fffeee;fill-opacity:0.69;"/><circle cx="771.687" cy="32.202" r="0.715" style="fill:#eeefff;fill-opacity:0.69;"/><circle cx="794.953" cy="26.108" r="1.461" style="fill:#fee;fill-opacity:0.69;"/><path d="M44.17,26.599c0.342,-0.198 0.78,-0.08 0.977,0.262c0.198,0.341 0.08,0.779 -0.261,0.976c-0.342,0.198 -0.78,0.08 -0.977,-0.261c-0.198,-0.342 -0.08,-0.78 0.261,-0.977Z" style="fill:#eeefff;fill-opacity:0.69;"/><circle cx="133.264" cy="33.817" r="0.715" style="fill:#eeefff;fill-opacity:0.69;"/><circle cx="97.667" cy="41.428" r="0.496" style="fill:#eeefff;fill-opacity:0.69;"/><circle cx="201.444" cy="28.019" r="0.805" style="fill:#eeefff;fill-opacity:0.69;"/><circle cx="163.281" cy="23.473" r="1.088" style="fill:#fff8e8;fill-opacity:0.69;"/><path d="M523.698,30.884c-0.342,0.197 -0.78,0.08 -0.977,-0.262c-0.197,-0.342 -0.08,-0.78 0.262,-0.977c0.342,-0.197 0.779,-0.08 0.977,0.262c0.197,0.341 0.08,0.779 -0.262,0.977Z" style="fill:#eeefff;fill-opacity:0.69;"/><circle cx="305.972" cy="29.398" r="0.496" style="fill:#eeefff;fill-opacity:0.69;"/><circle cx="769.852" cy="44.016" r="0.715" style="fill:#eeefff;fill-opacity:0.69;"/><circle cx="711.687" cy="24.074" r="0.715" style="fill:#eeefff;fill-opacity:0.69;"/><circle cx="734.953" cy="30.168" r="1.461" style="fill:#fee;fill-opacity:0.69;"/><circle cx="717.719" cy="10.364" r="0.673" style="fill:#eeefff;fill-opacity:0.69;"/><circle cx="756.911" cy="16.319" r="1.088" style="fill:#fff8e8;fill-opacity:0.69;"/><path d="M454.676,37.115c0.698,0.403 1.592,0.163 1.995,-0.535c0.403,-0.698 0.164,-1.592 -0.534,-1.995c-0.698,-0.403 -1.592,-0.164 -1.995,0.534c-0.404,0.698 -0.164,1.592 0.534,1.996Z" style="fill:#eeefff;fill-opacity:0.69;"/><path d="M465.701,47.253c0.342,0.197 0.78,0.08 0.977,-0.262c0.197,-0.342 0.08,-0.779 -0.262,-0.977c-0.342,-0.197 -0.779,-0.08 -0.977,0.262c-0.197,0.342 -0.08,0.78 0.262,0.977Z" style="fill:#eeefff;fill-opacity:0.69;"/><path d="M32.393,28.151c0.342,0.197 0.78,0.08 0.977,-0.262c0.197,-0.342 0.08,-0.78 -0.262,-0.977c-0.341,-0.197 -0.779,-0.08 -0.976,0.262c-0.198,0.342 -0.08,0.779 0.261,0.977Z" style="fill:#fffeee;fill-opacity:0.69;"/><path d="M494.249,8.398c0.342,0.198 0.78,0.08 0.977,-0.261c0.198,-0.342 0.08,-0.78 -0.261,-0.977c-0.342,-0.198 -0.78,-0.08 -0.977,0.261c-0.198,0.342 -0.08,0.78 0.261,0.977Z" style="fill:#eeefff;fill-opacity:0.69;"/><path d="M699.212,25.017c0.342,0.197 0.78,0.08 0.977,-0.262c0.197,-0.342 0.08,-0.779 -0.262,-0.977c-0.342,-0.197 -0.779,-0.08 -0.977,0.262c-0.197,0.342 -0.08,0.78 0.262,0.977Z" style="fill:#eeefff;fill-opacity:0.69;"/><path d="M549.645,25.017c0.342,0.197 0.779,0.08 0.977,-0.262c0.197,-0.342 0.08,-0.779 -0.262,-0.977c-0.342,-0.197 -0.78,-0.08 -0.977,0.262c-0.197,0.342 -0.08,0.78 0.262,0.977Z" style="fill:#eeefff;fill-opacity:0.69;"/><path d="M472.652,7.069c0.442,0.255 1.009,0.103 1.265,-0.339c0.255,-0.443 0.103,-1.01 -0.339,-1.265c-0.443,-0.256 -1.01,-0.104 -1.265,0.339c-0.256,0.442 -0.104,1.009 0.339,1.265Z" style="fill:#fee;fill-opacity:0.69;"/><path d="M416.68,31.856c0.488,0.282 1.112,0.114 1.394,-0.373c0.281,-0.488 0.114,-1.112 -0.374,-1.393c-0.487,-0.282 -1.112,-0.115 -1.393,0.373c-0.281,0.487 -0.114,1.112 0.373,1.393Z" style="fill:#eeefff;fill-opacity:0.69;"/><path d="M529.444,13.243c0.565,0.326 1.289,0.132 1.615,-0.433c0.326,-0.565 0.132,-1.289 -0.433,-1.615c-0.565,-0.326 -1.289,-0.133 -1.615,0.433c-0.326,0.565 -0.132,1.288 0.433,1.615Z" style="fill:#eeefff;fill-opacity:0.69;"/><path d="M498.917,29.864c0.52,0.3 1.186,0.122 1.486,-0.398c0.301,-0.52 0.122,-1.186 -0.398,-1.486c-0.52,-0.3 -1.186,-0.122 -1.486,0.398c-0.3,0.52 -0.122,1.186 0.398,1.486Z" style="fill:#fff8e8;fill-opacity:0.69;"/><circle cx="573.265" cy="5.3" r="0.967" style="fill:#eeefff;fill-opacity:0.69;"/><circle cx="648.544" cy="38.618" r="0.715" style="fill:#fffeee;fill-opacity:0.69;"/><circle cx="638.738" cy="17.799" r="0.715" style="fill:#eeefff;fill-opacity:0.69;"/><circle cx="274.158" cy="3.264" r="1.069" style="fill:#fee;fill-opacity:0.69;"/><circle cx="213.142" cy="10.187" r="0.496" style="fill:#eeefff;fill-opacity:0.69;"/><path d="M173.074,50.556c-0.342,0.198 -0.78,0.08 -0.977,-0.261c-0.198,-0.342 -0.08,-0.78 0.262,-0.977c0.341,-0.198 0.779,-0.08 0.976,0.262c0.198,0.341 0.08,0.779 -0.261,0.976Z" style="fill:#eeefff;fill-opacity:0.69;"/><path d="M323.074,50.556c-0.342,0.198 -0.78,0.08 -0.977,-0.261c-0.198,-0.342 -0.08,-0.78 0.262,-0.977c0.341,-0.198 0.779,-0.08 0.976,0.262c0.198,0.341 0.08,0.779 -0.261,0.976Z" style="fill:#eeefff;fill-opacity:0.69;"/><path d="M353.074,50.556c-0.342,0.198 -0.78,0.08 -0.977,-0.261c-0.198,-0.342 -0.08,-0.78 0.262,-0.977c0.341,-0.198 0.779,-0.08 0.976,0.262c0.198,0.341 0.08,0.779 -0.261,0.976Z" style="fill:#eeefff;fill-opacity:0.69;"/><path d="M383.074,50.556c-0.342,0.198 -0.78,0.08 -0.977,-0.261c-0.198,-0.342 -0.08,-0.78 0.262,-0.977c0.341,-0.198 0.779,-0.08 0.976,0.262c0.198,0.341 0.08,0.779 -0.261,0.976Z" style="fill:#eeefff;fill-opacity:0.69;"/><circle cx="254.174" cy="44.157" r="0.715" style="fill:#fffeee;fill-opacity:0.69;"/><circle cx="263.98" cy="23.339" r="0.715" style="fill:#eeefff;fill-opacity:0.69;"/><circle cx="299.577" cy="15.727" r="0.496" style="fill:#eeefff;fill-opacity:0.69;"/><circle cx="195.559" cy="38.849" r="1.461" style="fill:#eeefff;fill-opacity:0.69;"/><circle cx="233.963" cy="33.683" r="1.088" style="fill:#fff8e8;fill-opacity:0.69;"/><path d="M37.775,12.928c0.342,-0.197 0.78,-0.08 0.977,0.262c0.197,0.342 0.08,0.779 -0.262,0.977c-0.342,0.197 -0.779,0.08 -0.977,-0.262c-0.197,-0.342 -0.08,-0.78 0.262,-0.977Z" style="fill:#eeefff;fill-opacity:0.69;"/><circle cx="146.674" cy="49.327" r="0.715" style="fill:#fffeee;fill-opacity:0.69;"/><circle cx="126.868" cy="20.146" r="0.715" style="fill:#eeefff;fill-opacity:0.69;"/><circle cx="481.272" cy="27.758" r="0.496" style="fill:#eeefff;fill-opacity:0.69;"/><circle cx="735.084" cy="60.046" r="0.44" style="fill:#eeefff;fill-opacity:0.69;"/><path d="M623.013,27.532c-0.698,0.403 -1.592,0.163 -1.995,-0.535c-0.403,-0.698 -0.164,-1.592 0.535,-1.995c0.698,-0.403 1.592,-0.164 1.995,0.535c0.403,0.698 0.163,1.592 -0.535,1.995Z" style="fill:#eeefff;fill-opacity:0.69;"/><path d="M520.261,21.259c-0.698,0.403 -1.592,0.163 -1.995,-0.535c-0.403,-0.698 -0.164,-1.592 0.534,-1.995c0.698,-0.403 1.592,-0.164 1.995,0.535c0.404,0.698 0.164,1.592 -0.534,1.995Z" style="fill:#eeefff;fill-opacity:0.69;"/><path d="M554.976,21.878c-0.52,0.3 -1.186,0.122 -1.486,-0.398c-0.3,-0.52 -0.122,-1.186 0.398,-1.486c0.52,-0.3 1.186,-0.122 1.486,0.398c0.301,0.52 0.122,1.186 -0.398,1.486Z" style="fill:#fff8e8;fill-opacity:0.69;"/><circle cx="591.184" cy="24.216" r="0.762" style="fill:#eeefff;fill-opacity:0.69;"/><circle cx="208.506" cy="36.92" r="0.715" style="fill:#eeefff;fill-opacity:0.69;"/><circle cx="183.086" cy="22.385" r="1.069" style="fill:#fee;fill-opacity:0.69;"/><circle cx="153.07" cy="32.998" r="0.715" style="fill:#fffeee;fill-opacity:0.69;"/><circle cx="280.376" cy="27.009" r="0.715" style="fill:#eeefff;fill-opacity:0.69;"/><circle cx="62.16" cy="47.109" r="0.44" style="fill:#eeefff;fill-opacity:0.69;"/><circle cx="260.57" cy="57.828" r="0.715" style="fill:#fffeee;fill-opacity:0.69;"/><circle cx="740.966" cy="51.298" r="0.826" style="fill:#eeefff;fill-opacity:0.69;"/><circle cx="801.399" cy="55.949" r="0.715" style="fill:#fffeee;fill-opacity:0.69;"/><circle cx="778.687" cy="80.323" r="0.715" style="fill:#eeefff;fill-opacity:0.69;"/><circle cx="801.953" cy="74.229" r="1.461" style="fill:#fee;fill-opacity:0.69;"/><ellipse cx="726.231" cy="58.633" rx="0.737" ry="0.821" style="fill:#eeefff;fill-opacity:0.69;"/><circle cx="763.911" cy="64.439" r="1.088" style="fill:#fff8e8;fill-opacity:0.69;"/><path d="M462.155,64.919c0.575,0.333 1.312,0.135 1.644,-0.44c0.333,-0.576 0.135,-1.313 -0.44,-1.645c-0.576,-0.332 -1.313,-0.135 -1.645,0.441c-0.332,0.575 -0.135,1.312 0.441,1.644Z" style="fill:#eeefff;fill-opacity:0.69;"/><path d="M454.7,52.358c0.342,0.197 0.779,0.08 0.977,-0.262c0.197,-0.341 0.08,-0.779 -0.262,-0.977c-0.342,-0.197 -0.779,-0.08 -0.977,0.262c-0.197,0.342 -0.08,0.78 0.262,0.977Z" style="fill:#eeefff;fill-opacity:0.69;"/><path d="M469.393,136.271c0.342,0.198 0.78,0.081 0.977,-0.261c0.197,-0.342 0.08,-0.78 -0.262,-0.977c-0.341,-0.197 -0.779,-0.08 -0.976,0.262c-0.198,0.341 -0.08,0.779 0.261,0.976Z" style="fill:#fffeee;fill-opacity:0.69;"/><path d="M501.249,56.519c0.342,0.197 0.78,0.08 0.977,-0.262c0.198,-0.341 0.08,-0.779 -0.261,-0.976c-0.342,-0.198 -0.78,-0.081 -0.977,0.261c-0.198,0.342 -0.08,0.78 0.261,0.977Z" style="fill:#eeefff;fill-opacity:0.69;"/><path d="M706.212,73.138c0.342,0.197 0.78,0.08 0.977,-0.262c0.197,-0.342 0.08,-0.78 -0.262,-0.977c-0.342,-0.197 -0.779,-0.08 -0.977,0.262c-0.197,0.342 -0.08,0.779 0.262,0.977Z" style="fill:#eeefff;fill-opacity:0.69;"/><path d="M556.645,73.138c0.342,0.197 0.779,0.08 0.977,-0.262c0.197,-0.342 0.08,-0.78 -0.262,-0.977c-0.342,-0.197 -0.78,-0.08 -0.977,0.262c-0.197,0.342 -0.08,0.779 0.262,0.977Z" style="fill:#eeefff;fill-opacity:0.69;"/><path d="M729.58,36.383c0.698,0.403 1.592,0.163 1.995,-0.535c0.403,-0.698 0.164,-1.592 -0.534,-1.995c-0.698,-0.403 -1.592,-0.163 -1.995,0.535c-0.403,0.698 -0.164,1.592 0.534,1.995Z" style="fill:#fee;fill-opacity:0.69;"/><path d="M548.231,56.532c0.698,0.403 1.592,0.163 1.995,-0.535c0.403,-0.698 0.164,-1.592 -0.535,-1.995c-0.698,-0.403 -1.592,-0.164 -1.995,0.535c-0.403,0.698 -0.163,1.592 0.535,1.995Z" style="fill:#eeefff;fill-opacity:0.69;"/><path d="M650.983,50.259c0.698,0.403 1.592,0.163 1.995,-0.535c0.403,-0.698 0.164,-1.592 -0.534,-1.995c-0.698,-0.403 -1.592,-0.164 -1.995,0.535c-0.403,0.698 -0.164,1.592 0.534,1.995Z" style="fill:#eeefff;fill-opacity:0.69;"/><path d="M616.268,50.878c0.52,0.3 1.186,0.122 1.486,-0.398c0.3,-0.52 0.122,-1.186 -0.398,-1.486c-0.52,-0.3 -1.186,-0.122 -1.486,0.398c-0.301,0.52 -0.122,1.186 0.398,1.486Z" style="fill:#fff8e8;fill-opacity:0.69;"/><circle cx="580.06" cy="53.216" r="0.762" style="fill:#eeefff;fill-opacity:0.69;"/><circle cx="655.544" cy="86.738" r="0.715" style="fill:#fffeee;fill-opacity:0.69;"/><circle cx="645.738" cy="65.92" r="0.715" style="fill:#eeefff;fill-opacity:0.69;"/><circle cx="681.158" cy="31.385" r="1.069" style="fill:#fee;fill-opacity:0.69;"/><circle cx="610.142" cy="158.308" r="0.496" style="fill:#eeefff;fill-opacity:0.69;"/><path d="M750.074,78.677c-0.342,0.198 -0.78,0.08 -0.977,-0.262c-0.198,-0.341 -0.08,-0.779 0.262,-0.976c0.341,-0.198 0.779,-0.08 0.976,0.261c0.198,0.342 0.08,0.78 -0.261,0.977Z" style="fill:#eeefff;fill-opacity:0.69;"/><circle cx="651.174" cy="122.278" r="0.715" style="fill:#fffeee;fill-opacity:0.69;"/><circle cx="660.98" cy="71.459" r="0.715" style="fill:#eeefff;fill-opacity:0.69;"/><circle cx="696.577" cy="63.848" r="0.496" style="fill:#eeefff;fill-opacity:0.69;"/><circle cx="592.8" cy="77.257" r="0.805" style="fill:#eeefff;fill-opacity:0.69;"/><circle cx="630.963" cy="81.803" r="1.088" style="fill:#fff8e8;fill-opacity:0.69;"/><path d="M270.546,74.392c0.342,-0.197 0.78,-0.08 0.977,0.262c0.197,0.342 0.08,0.78 -0.262,0.977c-0.342,0.197 -0.779,0.08 -0.977,-0.262c-0.197,-0.341 -0.08,-0.779 0.262,-0.977Z" style="fill:#eeefff;fill-opacity:0.69;"/><circle cx="533.674" cy="47.448" r="0.715" style="fill:#fffeee;fill-opacity:0.69;"/><circle cx="523.868" cy="128.267" r="0.715" style="fill:#eeefff;fill-opacity:0.69;"/><circle cx="488.272" cy="75.878" r="0.496" style="fill:#eeefff;fill-opacity:0.69;"/><circle cx="742.084" cy="108.167" r="0.44" style="fill:#eeefff;fill-opacity:0.69;"/><circle cx="53.278" cy="53.978" r="0.826" style="fill:#eeefff;fill-opacity:0.69;"/><circle cx="24.392" cy="61.26" r="0.715" style="fill:#eeefff;fill-opacity:0.69;"/><circle cx="59.845" cy="176.828" r="0.715" style="fill:#fffeee;fill-opacity:0.69;"/><circle cx="82.557" cy="81.202" r="0.715" style="fill:#eeefff;fill-opacity:0.69;"/><circle cx="59.291" cy="75.108" r="1.461" style="fill:#fee;fill-opacity:0.69;"/><circle cx="13.635" cy="87.617" r="1.228" style="fill:#fee;fill-opacity:0.69;"/><circle cx="136.525" cy="59.364" r="0.673" style="fill:#eeefff;fill-opacity:0.69;"/><circle cx="97.333" cy="65.319" r="1.088" style="fill:#fff8e8;fill-opacity:0.69;"/><path d="M399.568,66.115c-0.698,0.403 -1.592,0.163 -1.995,-0.535c-0.403,-0.698 -0.164,-1.592 0.534,-1.995c0.699,-0.403 1.593,-0.164 1.996,0.534c0.403,0.698 0.163,1.592 -0.535,1.996Z" style="fill:#eeefff;fill-opacity:0.69;"/><path d="M398.543,46.253c-0.342,0.197 -0.78,0.08 -0.977,-0.262c-0.197,-0.342 -0.08,-0.779 0.262,-0.977c0.342,-0.197 0.779,-0.08 0.977,0.262c0.197,0.342 0.08,0.78 -0.262,0.977Z" style="fill:#eeefff;fill-opacity:0.69;"/><path d="M391.851,117.151c-0.342,0.197 -0.78,0.08 -0.977,-0.262c-0.197,-0.342 -0.08,-0.78 0.262,-0.977c0.341,-0.197 0.779,-0.08 0.976,0.262c0.198,0.342 0.081,0.779 -0.261,0.977Z" style="fill:#fffeee;fill-opacity:0.69;"/><path d="M359.995,57.398c-0.342,0.198 -0.78,0.08 -0.977,-0.261c-0.198,-0.342 -0.08,-0.78 0.261,-0.977c0.342,-0.198 0.78,-0.08 0.977,0.261c0.198,0.342 0.08,0.78 -0.261,0.977Z" style="fill:#eeefff;fill-opacity:0.69;"/><path d="M155.032,74.017c-0.342,0.197 -0.779,0.08 -0.977,-0.262c-0.197,-0.342 -0.08,-0.779 0.262,-0.977c0.342,-0.197 0.779,-0.08 0.977,0.262c0.197,0.342 0.08,0.78 -0.262,0.977Z" style="fill:#eeefff;fill-opacity:0.69;"/><path d="M304.599,74.017c-0.341,0.197 -0.779,0.08 -0.977,-0.262c-0.197,-0.342 -0.08,-0.779 0.262,-0.977c0.342,-0.197 0.78,-0.08 0.977,0.262c0.197,0.342 0.08,0.78 -0.262,0.977Z" style="fill:#eeefff;fill-opacity:0.69;"/><path d="M381.592,56.069c-0.442,0.255 -1.009,0.103 -1.265,-0.339c-0.255,-0.443 -0.103,-1.01 0.339,-1.265c0.443,-0.256 1.01,-0.104 1.265,0.339c0.256,0.442 0.104,1.009 -0.339,1.265Z" style="fill:#fee;fill-opacity:0.69;"/><path d="M437.564,80.856c-0.488,0.282 -1.112,0.114 -1.393,-0.373c-0.282,-0.488 -0.115,-1.112 0.373,-1.393c0.487,-0.282 1.112,-0.115 1.393,0.373c0.282,0.487 0.114,1.112 -0.373,1.393Z" style="fill:#eeefff;fill-opacity:0.69;"/><path d="M314.8,32.243c-0.565,0.326 -1.288,0.132 -1.615,-0.433c-0.326,-0.565 -0.132,-1.289 0.433,-1.615c0.565,-0.326 1.289,-0.133 1.615,0.433c0.326,0.565 0.132,1.288 -0.433,1.615Z" style="fill:#eeefff;fill-opacity:0.69;"/><path d="M355.327,78.864c-0.52,0.3 -1.186,0.122 -1.486,-0.398c-0.3,-0.52 -0.122,-1.186 0.398,-1.486c0.52,-0.3 1.186,-0.122 1.486,0.398c0.3,0.52 0.122,1.186 -0.398,1.486Z" style="fill:#fff8e8;fill-opacity:0.69;"/><circle cx="280.979" cy="54.3" r="0.967" style="fill:#eeefff;fill-opacity:0.69;"/><circle cx="205.7" cy="87.618" r="0.715" style="fill:#fffeee;fill-opacity:0.69;"/><circle cx="215.506" cy="176.799" r="0.715" style="fill:#eeefff;fill-opacity:0.69;"/><circle cx="190.086" cy="52.264" r="1.069" style="fill:#fee;fill-opacity:0.69;"/><circle cx="251.102" cy="59.187" r="0.496" style="fill:#eeefff;fill-opacity:0.69;"/><path d="M301.17,49.556c0.342,0.198 0.78,0.08 0.977,-0.261c0.198,-0.342 0.08,-0.78 -0.261,-0.977c-0.342,-0.198 -0.78,-0.08 -0.977,0.262c-0.198,0.341 -0.08,0.779 0.261,0.976Z" style="fill:#eeefff;fill-opacity:0.69;"/><path d="M151.17,49.556c0.342,0.198 0.78,0.08 0.977,-0.261c0.198,-0.342 0.08,-0.78 -0.261,-0.977c-0.342,-0.198 -0.78,-0.08 -0.977,0.262c-0.198,0.341 -0.08,0.779 0.261,0.976Z" style="fill:#eeefff;fill-opacity:0.69;"/><path d="M121.17,49.556c0.342,0.198 0.78,0.08 0.977,-0.261c0.198,-0.342 0.08,-0.78 -0.261,-0.977c-0.342,-0.198 -0.78,-0.08 -0.977,0.262c-0.198,0.341 -0.08,0.779 0.261,0.976Z" style="fill:#eeefff;fill-opacity:0.69;"/><path d="M91.17,49.556c0.342,0.198 0.78,0.08 0.977,-0.261c0.198,-0.342 0.08,-0.78 -0.261,-0.977c-0.342,-0.198 -0.78,-0.08 -0.977,0.262c-0.198,0.341 -0.08,0.779 0.261,0.976Z" style="fill:#eeefff;fill-opacity:0.69;"/><circle cx="210.07" cy="93.157" r="0.715" style="fill:#fffeee;fill-opacity:0.69;"/><circle cx="200.264" cy="72.339" r="0.715" style="fill:#eeefff;fill-opacity:0.69;"/><circle cx="164.667" cy="64.727" r="0.496" style="fill:#eeefff;fill-opacity:0.69;"/><circle cx="268.685" cy="127.849" r="1.461" style="fill:#eeefff;fill-opacity:0.69;"/><circle cx="230.281" cy="82.683" r="1.088" style="fill:#fff8e8;fill-opacity:0.69;"/><path d="M426.469,61.928c-0.342,-0.197 -0.78,-0.08 -0.977,0.262c-0.197,0.342 -0.08,0.779 0.262,0.977c0.342,0.197 0.779,0.08 0.977,-0.262c0.197,-0.342 0.08,-0.78 -0.262,-0.977Z" style="fill:#eeefff;fill-opacity:0.69;"/><circle cx="327.57" cy="48.327" r="0.715" style="fill:#fffeee;fill-opacity:0.69;"/><circle cx="337.376" cy="69.146" r="0.715" style="fill:#eeefff;fill-opacity:0.69;"/><circle cx="372.972" cy="76.758" r="0.496" style="fill:#eeefff;fill-opacity:0.69;"/><circle cx="119.16" cy="109.046" r="0.44" style="fill:#eeefff;fill-opacity:0.69;"/></g><g id="Clouds"><path id="_-Curve-" serif:id="(Curve)" d="M610.291,177.316c-35.879,-0.428 -84.67,-0.691 -138.392,-0.689c-38.684,0.002 -74.811,0.141 -105.402,0.38c-49.14,-2.745 -80.877,-9.954 -80.877,-14.718c0,-1.333 2.655,0.335 7.294,-0.896c96.772,-0.175 171.302,-1.213 171.302,-2.464c0,-1.107 -59.462,-3.372 -140.106,-3.687c38.487,-2.059 102.543,-4.972 173.823,-4.972c11.996,0 23.761,0.07 35.216,0.206c20.76,-4.638 60.945,-2.784 107.07,-2.784c36.08,0 68.525,-0.075 90.882,2.983c32.491,0.899 72.142,-1.186 114.922,-0.379c38.68,0.729 74.805,1.273 105.395,1.613c49.101,3.673 80.599,8.516 80.54,13.279c-0.016,1.334 -2.504,2.58 -7.158,3.723c-96.763,-1.654 -171.297,-2.024 -171.312,-0.774c-0.013,1.108 58.473,3.15 139.105,4.989c-38.514,3.085 -101.653,4.38 -172.925,3.033c-11.995,-0.227 -23.757,-0.52 -35.209,-0.872c-20.815,4.245 -61.034,6.631 -107.154,5.759c-24.754,-0.468 -47.786,-1.809 -67.014,-3.73Z" style="fill:#ddf0fb;"/><path id="_-Curve-1" serif:id="(Curve)" d="M609.299,171.607c-35.88,-0.338 -84.67,-0.545 -138.392,-0.543c-38.684,0.001 -74.812,0.111 -105.402,0.299c-49.141,-2.166 -80.694,-5.519 -80.694,-9.279c0,-1.052 2.472,-2.073 7.111,-3.045c96.772,-0.137 171.302,-0.957 171.302,-1.944c-0.001,-0.874 -58.506,-1.614 -139.15,-1.862c38.471,-3.009 101.587,-4.973 172.867,-4.973c11.996,0 23.761,0.055 35.216,0.162c20.76,-3.66 60.945,-6.143 107.07,-6.143c36.08,0 68.525,1.519 90.882,3.933c32.491,0.709 72.142,1.432 114.922,2.069c38.68,0.575 74.805,1.005 105.395,1.272c49.101,2.9 80.598,6.722 80.54,10.482c-0.017,1.052 -2.505,2.036 -7.158,2.938c-96.763,-1.305 -171.297,-1.597 -171.312,-0.611c-0.014,0.875 58.473,2.486 139.104,3.938c-38.514,2.435 -101.653,3.457 -172.924,2.394c-11.995,-0.179 -23.758,-0.41 -35.21,-0.688c-20.814,3.35 -61.033,5.234 -107.153,4.545c-24.754,-0.369 -47.786,-1.428 -67.014,-2.944Z" style="fill:#d8effd;"/><path d="M684.234,222.269c-12.108,-1.642 -29.721,-2.832 -29.76,-5.218c-0.063,-3.861 34.226,-4.225 76.6,-3.504c42.375,0.721 75.9,-2.707 76.956,1.008c2.476,8.704 -12.549,8.552 -32.56,10.141c-12.403,-0.58 -28.24,0.216 -44.434,0.479c-16.193,0.263 -35.197,-1.331 -46.802,-2.906Z" style="fill:#d8effd;"/><path d="M130.064,213.821c42.381,0 76.789,0.237 76.789,4.224c0,3.986 -14.408,4.223 -56.789,4.223c-42.38,0 -96.788,0.208 -96.788,-4.223c0,-4.431 34.408,-4.224 76.788,-4.224Z" style="fill:#d8effd;"/></g><g id="Mountains"><path d="M476.098,218.299l81.644,216.765l-205.408,0l123.764,-216.765Z" style="fill:#4560a0;"/><path d="M476.098,218.299l21.823,203.477l81.177,-8.706l-103,-194.771Z" style="fill:#5e84ba;"/><path d="M369.627,308.648l88.326,125.788l-205.407,0l117.081,-125.788Z" style="fill:#4560a0;"/><path d="M326.11,338.332l68.193,96.732l-205.407,0l137.214,-96.732Z" style="fill:#4560a0;"/><path d="M508.168,243.792l163.526,204.747l-256.643,0l93.117,-204.747Z" style="fill:#4560a0;"/><path d="M508.168,245.355l63.395,75.115l-54.953,46.379l-8.442,-121.494Z" style="fill:#5e84ba;"/><path d="M369.612,308.648l54.182,77.687l-58.981,41.135l4.799,-118.822Z" style="fill:#5e84ba;"/><path d="M326.184,338.326l16.813,23.99l-16.887,11.835l0.074,-35.825Z" style="fill:#5e84ba;"/><path d="M633.647,230.42l175.693,204.644l-351.387,0l175.694,-204.644Z" style="fill:#4560a0;"/><path d="M633.647,230.42l101.573,245.129l86.041,-35.653l-187.614,-209.476Z" style="fill:#5e84ba;"/><path d="M643.625,254.384c-0.571,0.219 -0.745,0.283 -1.863,0.82c-2.864,1.395 -6.079,3.209 -9.184,2.64c-6.187,-1.134 -10.854,-6.283 -16.725,-6.738l17.786,-20.729l9.986,24.007Z" style="fill:#d9d9d9;"/><path d="M654.229,253.4c-0.494,-0.028 -0.875,-0.013 -0.875,-0.013c-3.255,-0.486 -6.617,-0.192 -9.677,0.982l-0.052,0.02l-9.978,-23.97l20.582,22.981Z" style="fill:#fff;"/></g><g id="Buildings"><path d="M195.171,451.298l0,-292.145l-102.462,0l0,292.145l102.462,0Z" style="fill:url(#_Linear4);"/><path d="M289.755,451.298l0,-218.487l-57.232,0l0,218.487l57.232,0Z" style="fill:url(#_Linear5);"/><path d="M323.451,451.298l0,-123.585l-71.555,0l0,123.585l71.555,0Z" style="fill:#b4dbfb;"/><path d="M207.557,451.298l0,-218.487l25.314,0l0,218.487l-25.314,0Z" style="fill:#b4dbfb;"/><path d="M92.709,451.298l0,-292.145l25.314,0l0,292.145l-25.314,0Z" style="fill:#b4dbfb;"/><path d="M323.451,451.298l0,-123.585l-16.692,0l0,123.585l16.692,0Z" style="fill:url(#_Linear6);"/><path d="M272.498,451.298l0,-95.771l-136.555,0l0,95.771l136.555,0Z" style="fill:url(#_Linear7);"/><path d="M85.122,451.298l0,-178.856l-97.675,0l0,178.856l97.675,0Z" style="fill:url(#_Linear8);"/><path d="M173.526,451.298l0,-95.771l-37.583,0l0,95.771l37.583,0Z" style="fill:#b4dbfb;"/><path d="M66.649,456.944l0,-184.502l-69.677,0l0,184.502l69.677,0Z" style="fill:#b4dbfb;"/></g><rect x="-3.028" y="431.298" width="826.844" height="20.006" style="fill:#fafafa;"/><g id="Laptop"><path d="M606.064,273.603c0,-6.261 -5.076,-11.337 -11.337,-11.337c-37.536,0 -157.517,0 -195.054,0c-6.261,0 -11.337,5.076 -11.337,11.337c0,33.077 0,128.577 0,151.521c0,1.326 0.527,2.598 1.465,3.536c0.938,0.937 2.209,1.464 3.535,1.464c29.3,0 178.429,0 207.728,0c1.326,0 2.598,-0.527 3.536,-1.464c0.937,-0.938 1.464,-2.21 1.464,-3.536c0,-22.944 0,-118.444 0,-151.521Z" style="fill:#657390;"/><path d="M606.064,273.603c0,-6.261 -5.076,-11.337 -11.337,-11.337c-37.536,0 -157.517,0 -195.054,0c-6.261,0 -11.337,5.076 -11.337,11.337c0,33.077 0,128.577 0,151.521c0,1.326 0.527,2.598 1.465,3.536c0.938,0.937 2.209,1.464 3.535,1.464c29.3,0 178.429,0 207.728,0c1.326,0 2.598,-0.527 3.536,-1.464c0.937,-0.938 1.464,-2.21 1.464,-3.536c0,-22.944 0,-118.444 0,-151.521Z" style="fill:#657390;"/><path d="M599.193,275.905c0,-3.05 -2.476,-5.526 -5.526,-5.526l-193.063,0c-3.05,0 -5.526,2.476 -5.526,5.526l0,141.039c0,3.05 2.476,5.526 5.526,5.526l193.063,0c3.05,0 5.526,-2.476 5.526,-5.526l0,-141.039Z" style="fill:#130c2b;"/><path d="M655.04,427.228c0,-0.252 -0.205,-0.457 -0.457,-0.457c-13.334,0 -313.753,0 -313.753,0l0,4.975c0,2.761 2.239,5 5,5c36.953,0 267.257,0 304.21,0c2.761,0 5,-2.239 5,-5c0,-1.845 0,-3.687 0,-4.518Z" style="fill:url(#_Linear9);"/><circle id="Camera" cx="497.178" cy="267.001" r="1.238" style="fill-opacity:0.45;"/><circle id="Mic" cx="500.009" cy="267.001" r="0.527" style="fill-opacity:0.45;"/><circle id="Ambient-Light-" serif:id="Ambient Light?" cx="494.263" cy="267.001" r="0.527" style="fill:#102708;fill-opacity:0.45;"/><g id="Icon"><path d="M543.109,335.27l-18.005,-18.014l-4.857,4.857l15.576,15.585l-15.576,15.582l4.857,4.856l18.005,-18.007c0.649,-0.652 1.008,-1.516 1.008,-2.434c-0.004,-0.918 -0.359,-1.778 -1.008,-2.425" style="fill:#ccffd6;fill-rule:nonzero;"/><path d="M497.136,326.699c7.364,-7.356 19.316,-7.354 26.677,0.007c7.361,7.362 7.364,19.313 0.007,26.677l0.007,0.007l-26.684,26.684l-26.684,-26.684c-7.364,-7.363 -7.364,-19.32 0,-26.684c7.361,-7.361 19.313,-7.363 26.677,-0.007Z" style="fill:#c47dff;"/><path d="M473.797,339.323l-4.859,-4.857l-18.012,18.01c-0.647,0.646 -1.004,1.511 -1.001,2.428c0,0.918 0.354,1.781 1.001,2.428l18.012,18.012l4.859,-4.856l-15.583,-15.584l15.583,-15.581Z" style="fill:#ccffd6;fill-rule:nonzero;"/></g></g></g><defs><linearGradient id="_Linear2" x1="0" y1="0" x2="1" y2="0" gradientUnits="userSpaceOnUse" gradientTransform="matrix(-8.64246e-14,451.564,-803.856,-1.43038e-13,398.9,-3.51255)"><stop offset="0" style="stop-color:#68adfc;stop-opacity:1"/><stop offset="0.34" style="stop-color:#cbe0f8;stop-opacity:1"/><stop offset="1" style="stop-color:#d2cbf8;stop-opacity:1"/></linearGradient><radialGradient id="_Radial3" cx="0" cy="0" r="1" gradientUnits="userSpaceOnUse" gradientTransform="matrix(647.316,0,0,309.935,720.558,355.142)"><stop offset="0" style="stop-color:#cfcfcf;stop-opacity:0.65"/><stop offset="1" style="stop-color:#fff552;stop-opacity:0"/></radialGradient><linearGradient id="_Linear4" x1="0" y1="0" x2="1" y2="0" gradientUnits="userSpaceOnUse" gradientTransform="matrix(31.4265,292.145,-292.145,31.4265,112.513,159.153)"><stop offset="0" style="stop-color:#bde8f7;stop-opacity:1"/><stop offset="1" style="stop-color:#86b6fe;stop-opacity:1"/></linearGradient><linearGradient id="_Linear5" x1="0" y1="0" x2="1" y2="0" gradientUnits="userSpaceOnUse" gradientTransform="matrix(19.1616,218.487,-218.487,19.1616,241.977,232.811)"><stop offset="0" style="stop-color:#bde8f7;stop-opacity:1"/><stop offset="1" style="stop-color:#86b6fe;stop-opacity:1"/></linearGradient><linearGradient id="_Linear6" x1="0" y1="0" x2="1" y2="0" gradientUnits="userSpaceOnUse" gradientTransform="matrix(0,123.585,-123.585,0,315.105,327.713)"><stop offset="0" style="stop-color:#bde8f7;stop-opacity:1"/><stop offset="1" style="stop-color:#86b6fe;stop-opacity:1"/></linearGradient><linearGradient id="_Linear7" x1="0" y1="0" x2="1" y2="0" gradientUnits="userSpaceOnUse" gradientTransform="matrix(47.6759,123.555,-123.555,47.6759,204.22,342.055)"><stop offset="0" style="stop-color:#bde8f7;stop-opacity:1"/><stop offset="1" style="stop-color:#86b6fe;stop-opacity:1"/></linearGradient><linearGradient id="_Linear8" x1="0" y1="0" x2="1" y2="0" gradientUnits="userSpaceOnUse" gradientTransform="matrix(1.16924e-14,190.951,-190.951,1.16924e-14,77.8467,255.423)"><stop offset="0" style="stop-color:#bde8f7;stop-opacity:1"/><stop offset="1" style="stop-color:#86b6fe;stop-opacity:1"/></linearGradient><linearGradient id="_Linear9" x1="0" y1="0" x2="1" y2="0" gradientUnits="userSpaceOnUse" gradientTransform="matrix(314.21,0,0,9.97478,340.83,431.758)"><stop offset="0" style="stop-color:#a9abc1;stop-opacity:1"/><stop offset="0.11" style="stop-color:#65687d;stop-opacity:1"/><stop offset="0.5" style="stop-color:#c3c5d2;stop-opacity:1"/><stop offset="0.89" style="stop-color:#64677c;stop-opacity:1"/><stop offset="1" style="stop-color:#a4a7c2;stop-opacity:1"/></linearGradient></defs></svg>