<?xml version="1.0" encoding="UTF-8" standalone="no"?><!DOCTYPE svg PUBLIC "-//W3C//DTD SVG 1.1//EN" "http://www.w3.org/Graphics/SVG/1.1/DTD/svg11.dtd"><svg width="100%" height="100%" viewBox="0 0 100 100" version="1.1" xmlns="http://www.w3.org/2000/svg" xmlns:xlink="http://www.w3.org/1999/xlink" xml:space="preserve" xmlns:serif="http://www.serif.com/" style="fill-rule:evenodd;clip-rule:evenodd;stroke-linejoin:round;stroke-miterlimit:2;"><rect id="Artboard1" x="0" y="0" width="100" height="100" style="fill:none;"/><g id="Artboard11" serif:id="Artboard1"><g><g id="Ap"><g><path d="M90.506,47.156l-15.824,-15.832l-4.268,4.269l13.688,13.696l-13.688,13.695l4.268,4.268l15.824,-15.826c0.57,-0.573 0.885,-1.332 0.885,-2.139c-0.002,-0.807 -0.315,-1.563 -0.885,-2.131" style="fill:#fff;fill-rule:nonzero;"/></g><path d="M29.924,35.595l-4.27,-4.27l-15.83,15.829c-0.568,0.568 -0.882,1.328 -0.88,2.134c0,0.807 0.312,1.565 0.88,2.133l15.83,15.83l4.27,-4.267l-13.695,-13.696l13.695,-13.693Z" style="fill:#fff;fill-rule:nonzero;"/><path d="M47.276,31.405c0.168,-1.47 1.413,-2.58 2.893,-2.58c1.48,0 2.724,1.11 2.893,2.58l1.124,9.784l9.653,-1.954c1.451,-0.294 2.891,0.547 3.348,1.954c0.457,1.408 -0.214,2.934 -1.56,3.549l-8.958,4.093l4.842,8.576c0.727,1.289 0.373,2.918 -0.824,3.788c-1.198,0.87 -2.857,0.704 -3.858,-0.386l-6.66,-7.255l-6.661,7.255c-1,1.09 -2.66,1.256 -3.857,0.386c-1.197,-0.87 -1.552,-2.499 -0.824,-3.788l4.842,-8.576l-8.958,-4.093c-1.347,-0.615 -2.017,-2.141 -1.56,-3.549c0.457,-1.407 1.897,-2.248 3.348,-1.954l9.653,1.954l1.124,-9.784Z" style="fill:#fff;"/></g></g></g></svg>