<?xml version="1.0" encoding="UTF-8" standalone="no"?><!DOCTYPE svg PUBLIC "-//W3C//DTD SVG 1.1//EN" "http://www.w3.org/Graphics/SVG/1.1/DTD/svg11.dtd"><svg width="100%" height="100%" viewBox="0 0 100 100" version="1.1" xmlns="http://www.w3.org/2000/svg" xmlns:xlink="http://www.w3.org/1999/xlink" xml:space="preserve" xmlns:serif="http://www.serif.com/" style="fill-rule:evenodd;clip-rule:evenodd;stroke-linejoin:round;stroke-miterlimit:2;"><rect id="Artboard1" x="0" y="0" width="100" height="100" style="fill:none;"/><g id="Artboard11" serif:id="Artboard1"><g><g id="Map-Flipped" serif:id="Map Flipped"><path d="M48.556,27.619c0.113,-0.67 -0.34,-1.214 -1.01,-1.214l-2.429,0c-0.67,0 -1.306,0.544 -1.419,1.214l-6.89,40.839c-0.113,0.67 0.339,1.214 1.009,1.214l2.429,0c0.67,0 1.306,-0.544 1.419,-1.214l6.891,-40.839Z" style="fill:#fff;"/><path d="M62.429,27.619c0.113,-0.67 -0.339,-1.214 -1.009,-1.214l-2.429,0c-0.67,0 -1.306,0.544 -1.419,1.214l-6.89,40.839c-0.113,0.67 0.339,1.214 1.009,1.214l2.429,0c0.67,0 1.306,-0.544 1.419,-1.214l6.89,-40.839Z" style="fill:#fff;"/><path d="M67.974,43.53c0.69,0 1.341,-0.544 1.454,-1.214l0.41,-2.429c0.113,-0.67 -0.355,-1.214 -1.044,-1.214l-35.19,0c-0.69,0 -1.341,0.544 -1.454,1.214l-0.41,2.429c-0.113,0.67 0.355,1.214 1.044,1.214l35.19,0Z" style="fill:#fff;"/><path d="M65.633,57.404c0.69,0 1.341,-0.544 1.454,-1.214l0.41,-2.429c0.113,-0.67 -0.355,-1.214 -1.044,-1.214l-35.19,0c-0.689,0 -1.341,0.544 -1.454,1.214l-0.41,2.429c-0.113,0.67 0.355,1.214 1.044,1.214l35.19,0Z" style="fill:#fff;"/></g></g></g></svg>