<?xml version="1.0" encoding="UTF-8" standalone="no"?><!DOCTYPE svg PUBLIC "-//W3C//DTD SVG 1.1//EN" "http://www.w3.org/Graphics/SVG/1.1/DTD/svg11.dtd"><svg width="100%" height="100%" viewBox="0 0 100 100" version="1.1" xmlns="http://www.w3.org/2000/svg" xmlns:xlink="http://www.w3.org/1999/xlink" xml:space="preserve" xmlns:serif="http://www.serif.com/" style="fill-rule:evenodd;clip-rule:evenodd;stroke-linejoin:round;stroke-miterlimit:1.5;"><rect id="Artboard1" x="0" y="0" width="100" height="100" style="fill:none;"/><g id="Artboard11" serif:id="Artboard1"><g><g id="Apply"><g><path d="M37.344,58.583c0,5.756 5.739,10.422 12.819,10.422c7.075,0 12.818,-4.67 12.818,-10.422c0,-5.754 -5.733,-10.418 -12.807,-10.423l-0.013,0.002c-7.074,-0.005 -12.808,-4.67 -12.808,-10.423c0,-5.752 5.744,-10.423 12.819,-10.423c7.079,0 12.819,4.667 12.819,10.423" style="fill:none;stroke:#fff;stroke-width:6px;"/><path d="M53.012,18.146c0,-0.714 -0.58,-1.294 -1.294,-1.294l-2.588,0c-0.714,0 -1.293,0.58 -1.293,1.294l0,59.785c0,0.714 0.579,1.294 1.293,1.294l2.588,0c0.714,0 1.294,-0.58 1.294,-1.294l0,-59.785Z" style="fill:#fff;"/></g></g></g></g></svg>