<?xml version="1.0" encoding="UTF-8" standalone="no"?><!DOCTYPE svg PUBLIC "-//W3C//DTD SVG 1.1//EN" "http://www.w3.org/Graphics/SVG/1.1/DTD/svg11.dtd"><svg width="100%" height="100%" viewBox="0 0 100 100" version="1.1" xmlns="http://www.w3.org/2000/svg" xmlns:xlink="http://www.w3.org/1999/xlink" xml:space="preserve" xmlns:serif="http://www.serif.com/" style="fill-rule:evenodd;clip-rule:evenodd;stroke-linejoin:round;stroke-miterlimit:2;"><rect id="Artboard1" x="0" y="0" width="100" height="100" style="fill:none;"/><clipPath id="_clip1"><rect id="Artboard11" serif:id="Artboard1" x="0" y="0" width="100" height="100"/></clipPath><g clip-path="url(#_clip1)"><rect id="Background" x="-0.264" y="0.156" width="100.061" height="99.786" style="fill:#1e223f;"/><g id="kleisli"><g><path d="M79.506,47.808l-15.824,-15.832l-4.268,4.269l13.688,13.696l-13.688,13.695l4.268,4.268l15.824,-15.826c0.57,-0.573 0.885,-1.332 0.885,-2.139c-0.002,-0.807 -0.315,-1.563 -0.885,-2.131" style="fill:#fff;fill-rule:nonzero;"/></g><path d="M21.944,36.247l4.27,-4.27l15.83,15.829c0.568,0.568 0.882,1.328 0.88,2.134c0,0.807 -0.312,1.565 -0.88,2.133l-15.83,15.83l-4.27,-4.267l13.695,-13.696l-13.695,-13.693Z" style="fill:#fff;fill-rule:nonzero;"/><path d="M40.679,36.247l4.27,-4.27l15.83,15.829c0.568,0.568 0.882,1.328 0.88,2.134c0,0.807 -0.312,1.565 -0.88,2.133l-15.83,15.83l-4.27,-4.267l13.695,-13.696l-13.695,-13.693Z" style="fill:#fff;fill-rule:nonzero;"/></g></g></svg>