<?xml version="1.0" encoding="UTF-8" standalone="no"?><!DOCTYPE svg PUBLIC "-//W3C//DTD SVG 1.1//EN" "http://www.w3.org/Graphics/SVG/1.1/DTD/svg11.dtd"><svg width="100%" height="100%" viewBox="0 0 100 100" version="1.1" xmlns="http://www.w3.org/2000/svg" xmlns:xlink="http://www.w3.org/1999/xlink" xml:space="preserve" xmlns:serif="http://www.serif.com/" style="fill-rule:evenodd;clip-rule:evenodd;stroke-linejoin:round;stroke-miterlimit:2;"><rect id="Artboard1" x="0" y="0" width="100" height="100" style="fill:none;"/><g id="Artboard11" serif:id="Artboard1"><g id="Map"><path d="M90.506,45.907l-15.824,-15.832l-4.268,4.269l13.688,13.696l-13.688,13.695l4.268,4.268l15.824,-15.826c0.57,-0.573 0.885,-1.332 0.885,-2.139c-0.002,-0.807 -0.315,-1.563 -0.885,-2.131" style="fill-rule:nonzero;"/><path d="M29.924,34.346l-4.27,-4.27l-15.83,15.829c-0.568,0.568 -0.882,1.328 -0.88,2.134c0,0.807 0.312,1.565 0.88,2.133l15.83,15.83l4.27,-4.267l-13.695,-13.696l13.695,-13.693Z" style="fill-rule:nonzero;"/><path d="M51.304,22.848c0.484,0 0.878,0.393 0.878,0.878l0,4.969c5.339,0.735 10.415,4.272 10.951,10.001c0.027,0.289 0.039,0.579 0.041,0.869l-4.931,0.039c-0.023,-2.934 -2.79,-5.107 -6.061,-5.828l0,12.109c1.468,0.218 3.352,0.65 4.937,1.5c4.967,2.661 7.895,9.181 4.515,14.545c-1.991,3.157 -5.6,5.051 -9.452,5.574l0,4.847c0,0.485 -0.394,0.878 -0.878,0.878l-1.756,0c-0.485,0 -0.878,-0.393 -0.878,-0.878l0,-4.75c-4.77,-0.384 -9.281,-2.894 -10.969,-7.726c-0.351,-1.007 -0.529,-2.071 -0.537,-3.139l4.931,-0.039c0.024,3.085 3.085,5.33 6.575,5.927l0,-12.096c-0.618,-0.06 -1.308,-0.154 -1.945,-0.301c-5.207,-1.206 -10.046,-5.836 -9.512,-11.531c0.5,-5.342 5.647,-9.416 11.457,-10.055l0,-4.915c0,-0.485 0.393,-0.878 0.878,-0.878l1.756,0Zm0.878,27.969l0,11.83c2.136,-0.357 4.109,-1.432 5.32,-3.411c0.745,-1.22 0.945,-2.758 0.448,-4.118c-0.852,-2.328 -3.189,-3.791 -5.768,-4.301Zm-3.512,-17.235c-2.331,0.263 -4.527,1.346 -5.834,3.483c-0.745,1.22 -0.945,2.758 -0.448,4.118c0.908,2.482 3.504,3.981 6.282,4.389l0,-11.99Z" style=""/></g></g></svg>
