<?xml version="1.0" encoding="UTF-8"?>
<!DOCTYPE svg  PUBLIC '-//W3C//DTD SVG 1.1//EN'  'http://www.w3.org/Graphics/SVG/1.1/DTD/svg11.dtd'>
<svg clip-rule="evenodd" fill-rule="evenodd" stroke-linejoin="round" stroke-miterlimit="2" version="1.1" viewBox="0 0 100 100" xml:space="preserve" xmlns="http://www.w3.org/2000/svg"><g fill="#fff" fill-rule="nonzero"><path d="m69.418 69.64l-7.256-6.775h-31.862l7.256 6.775h31.862z"/><path d="m37.556 45.889l-7.256 6.775h31.863l7.255-6.775h-31.862z"/><path d="m69.416 35.686l-7.254-6.777h-31.86l7.254 6.777h31.86z"/><path d="m26.948 42.391l-4.794-4.793-17.772 17.77c-0.638 0.638-0.99 1.491-0.988 2.396 0 0.906 0.35 1.757 0.988 2.395l17.772 17.772 4.794-4.791-15.375-15.376 15.375-15.373z"/><path d="m95.336 38.392l-17.765-17.774-4.792 4.792 15.368 15.377-15.368 15.374 4.792 4.792 17.765-17.767c0.64-0.644 0.994-1.496 0.994-2.402-3e-3 -0.906-0.354-1.754-0.994-2.392"/></g></svg>
