<?xml version="1.0" encoding="UTF-8" standalone="no"?><!DOCTYPE svg PUBLIC "-//W3C//DTD SVG 1.1//EN" "http://www.w3.org/Graphics/SVG/1.1/DTD/svg11.dtd"><svg width="100%" height="100%" viewBox="0 0 101 72" version="1.1" xmlns="http://www.w3.org/2000/svg" xmlns:xlink="http://www.w3.org/1999/xlink" xml:space="preserve" xmlns:serif="http://www.serif.com/" style="fill-rule:evenodd;clip-rule:evenodd;stroke-linejoin:round;stroke-miterlimit:2;"><rect id="Artboard1" x="0" y="0" width="100.651" height="71.235" style="fill:none;"/><g id="Icon"><path d="M96.414,22.222l-18.005,-18.014l-4.857,4.857l15.576,15.585l-15.576,15.582l4.857,4.856l18.005,-18.007c0.649,-0.652 1.007,-1.516 1.007,-2.434c-0.003,-0.918 -0.358,-1.778 -1.007,-2.425" style="fill:#ccffd6;fill-rule:nonzero;"/><path d="M50.441,13.651c7.364,-7.356 19.315,-7.354 26.677,0.007c7.361,7.362 7.363,19.313 0.007,26.677l0.007,0.007l-26.684,26.684l-26.684,-26.684c-7.364,-7.363 -7.364,-19.32 0,-26.684c7.361,-7.361 19.312,-7.363 26.677,-0.007Z" style="fill:#c47dff;"/><path d="M27.102,26.276l-4.859,-4.858l-18.012,18.01c-0.647,0.647 -1.004,1.511 -1.002,2.428c0,0.919 0.355,1.781 1.002,2.428l18.012,18.012l4.859,-4.856l-15.583,-15.584l15.583,-15.58Z" style="fill:#ccffd6;fill-rule:nonzero;"/></g></svg>